# xmcd
#
# Track frame offsets: 
#        150
#        3915
#        40097
#        60970
#        96707
#        102352
#        124335
#        176810
#
# Disc length: 2470 seconds
#
# Revision: 4
# Processed by: cddbd v1.5.2PL0 Copyright (c) Steve Scherf et al.
# Submitted via: ExactAudioCopy v0.95b4
#
DISCID=6609a408
DTITLE=King Crimson - In The Wake Of Poseidon [1987 Jap]
DYEAR=1970
DGENRE=Rock
TTITLE0=Peace - A Beginning
TTITLE1=Pictures Of A City, Including 42nd At Treadmill
TTITLE2=Cadence And Cascade
TTITLE3=In The Wake Of Poseidon, Including Libra's Theme
TTITLE4=Peace - A Theme
TTITLE5=Cat Food
TTITLE6=The Devil's Triangle
TTITLE7=Peace - An End
EXTD=
EXTT0=
EXTT1=
EXTT2=
EXTT3=
EXTT4=
EXTT5=
EXTT6=
EXTT7=
PLAYORDER=
